<?xml version="1.0" encoding="utf-8"?>
<!-- Generator: Adobe Illustrator 18.0.0, SVG Export Plug-In . SVG Version: 6.00 Build 0)  -->
<!DOCTYPE svg PUBLIC "-//W3C//DTD SVG 1.1//EN" "http://www.w3.org/Graphics/SVG/1.1/DTD/svg11.dtd">
<svg version="1.1" id="Layer_1" xmlns="http://www.w3.org/2000/svg" xmlns:xlink="http://www.w3.org/1999/xlink" x="0px" y="0px"
	 viewBox="0 0 117 117" enable-background="new 0 0 117 117" xml:space="preserve">
<g>
	<path fill="#4C5650" d="M75.355,41.666c-0.429-0.273-0.832-0.229-1.092-0.147l-13.987,8.474l-0.003,0
		c-0.514,0.316-1.117,0.502-1.764,0.502c-0.704,0-1.357-0.216-1.898-0.585L43.03,41.652c0,0-0.657-0.45-1.386,0.014
		c-0.463,0.339-0.538,0.821-0.55,0.995v32.401c0.006,0.116,0.035,0.341,0.157,0.541c0.194,0.319,0.431,0.443,0.431,0.443
		l16.081,10.52c0,0,0.267,0.237,0.726,0.237c0.468,0,0.709-0.213,0.709-0.213L75.35,76.023c0,0,0.266-0.188,0.408-0.444
		c0.131-0.236,0.146-0.581,0.146-0.581V42.661C75.893,42.487,75.819,42.005,75.355,41.666z M58.499,76.493l-0.009,0.004
		c-0.044,0.65-0.579,1.165-1.24,1.165c-0.244,0-0.47-0.073-0.663-0.194l0,0l-0.003-0.002c-0.015-0.01-0.031-0.018-0.046-0.029
		l-7.901-4.973c-0.124-0.053-0.248-0.119-0.371-0.212c-0.212-0.278-0.309-0.562-0.326-0.831l-0.006-0.011V54.918
		c0-0.004-0.001-0.007-0.001-0.011s0.001-0.007,0.001-0.011v-0.034l0.004-0.002c0.025-0.668,0.57-1.203,1.244-1.203
		c0.269,0,0.517,0.087,0.721,0.232l7.959,5.016l0.009,0.014c0.344,0.199,0.582,0.554,0.618,0.971l0.011,0.017V76.493z"/>
	<path fill="#4C5650" d="M112,0H5C2.25,0,0,2.25,0,5v107c0,2.75,2.25,5,5,5h107c2.75,0,5-2.25,5-5V5C117,2.25,114.75,0,112,0z
		 M82.74,77.345l-0.012,0.024c-0.061,0.88-0.459,1.665-1.066,2.231l-0.024,0.049l-0.123,0.084c-0.025,0.021-0.052,0.039-0.078,0.058
		l-0.006,0.011l-0.107,0.073c-0.042,0.03-0.084,0.059-0.127,0.087L60.742,94.026l-0.005,0.001c-0.584,0.484-1.334,0.776-2.152,0.776
		c-0.029,0-0.056-0.004-0.085-0.004c-0.028,0.001-0.056,0.004-0.085,0.004c-0.818,0-1.568-0.291-2.152-0.776l-0.005-0.001
		L35.567,79.803l-0.01-0.019l-0.197-0.134l-0.036-0.076c-0.583-0.555-0.967-1.316-1.036-2.167l-0.03-0.062l0.041-1.001
		l-0.041-46.386l0.019-0.01c0.032-0.972,0.828-1.75,1.808-1.75c0.453,0,0.866,0.167,1.183,0.442l20.496,13.383
		c0,0,0.266,0.248,0.729,0.242c0.429-0.005,0.689-0.21,0.689-0.21L79.73,28.64c0.318-0.275,0.73-0.442,1.183-0.442
		c0.98,0,1.776,0.779,1.808,1.75l0.019,0.01l-0.041,46.616l0.005,0.088c0.022,0.154,0.037,0.311,0.037,0.471
		c0,0.038-0.004,0.075-0.006,0.112L82.74,77.345z"/>
</g>
</svg>
